<?xml version="1.0" encoding="utf-8"?>
<!-- Generator: Adobe Illustrator 28.0.0, SVG Export Plug-In . SVG Version: 6.00 Build 0)  -->
<svg version="1.1" id="Layer_2_00000104704374003479068270000003089308028034446470_"
	 xmlns="http://www.w3.org/2000/svg" xmlns:xlink="http://www.w3.org/1999/xlink" x="0px" y="0px" viewBox="0 0 1280 246.3"
	 style="enable-background:new 0 0 1280 246.3;" xml:space="preserve">
<style type="text/css">
	.st0{fill:#FFFFFF;}
</style>
<g id="Logos">
	<g>
		<g>
			<path class="st0" d="M446.6,2c13,0,24.4,2.5,34.4,7.5c10,5,17.6,12,23.1,21.1c5.4,9.1,8.2,19.8,8.2,32c0,13.7-3.8,25.6-11.4,35.6
				c-7.6,10.1-17.8,16.9-30.6,20.4l44.2,80.5h-27.6L446,123.4h-50.4v75.8h-24.5V2H446.6z M395.6,100.8h49c13,0,23.3-3.5,31-10.4
				c7.7-6.9,11.5-16.2,11.5-27.9s-3.9-20.7-11.5-27.6c-7.7-6.9-17.9-10.4-30.7-10.4h-49.3V100.8L395.6,100.8z"/>
			<path class="st0" d="M540.3,199.1V2h24.5v174.6h89.8v22.5L540.3,199.1L540.3,199.1z"/>
			<path class="st0" d="M678.1,2h58.3c20.3,0,37.9,4.1,52.8,12.2s26.4,19.7,34.4,34.5s12,32.1,12,51.8s-4,36.8-12,51.7
				c-8,14.9-19.4,26.5-34.4,34.6c-14.9,8.2-32.5,12.2-52.8,12.2h-58.3V2z M736.4,176.6c23.5,0,41.7-6.9,54.6-20.6
				c13-13.7,19.4-32.2,19.4-55.5s-6.4-42-19.3-55.6c-12.9-13.6-31.1-20.4-54.8-20.4h-33.8v152.1L736.4,176.6L736.4,176.6z"/>
			<path class="st0" d="M993,178v21.1h-12.7c-9.2,0-15.8-1.9-19.7-5.6c-3.9-3.8-6-9.3-6.2-16.6c-11.1,16-27.1,23.9-48.2,23.9
				c-16,0-28.8-3.8-38.5-11.3c-9.7-7.5-14.5-17.7-14.5-30.7c0-14.5,4.9-25.5,14.8-33.2s24.2-11.6,43-11.6h42.2v-9.9
				c0-9.4-3.1-16.7-9.4-22c-6.3-5.3-15.1-7.9-26.3-7.9c-10,0-18.2,2.2-24.6,6.6c-6.5,4.4-10.5,10.3-12,17.6h-23.1
				c1.7-14.1,7.9-25.1,18.7-32.9c10.8-7.9,24.8-11.8,42.1-11.8c18.4,0,32.6,4.5,42.7,13.4c10,8.9,15.1,21.7,15.1,38.5v62
				c0,6.9,3.2,10.4,9.6,10.4L993,178L993,178z M953.3,133.5h-44.5c-21.4,0-32.1,8-32.1,23.9c0,7.1,2.8,12.9,8.5,17.2
				s13.2,6.5,22.8,6.5c14.1,0,25.2-3.7,33.2-11.1c8.1-7.4,12.1-17.2,12.1-29.4V133.5z"/>
			<path class="st0" d="M1018.9,76.6H993V55.5h25.9V15.2h23.1v40.3h36.3v21.1H1042v84.8c0,6,1.2,10.3,3.5,12.8
				c2.3,2.5,6.4,3.8,12.2,3.8h25.1v21.1h-26.5c-13.5,0-23.1-3-28.9-9s-8.6-15.5-8.6-28.4L1018.9,76.6L1018.9,76.6z"/>
			<path class="st0" d="M1123.9,4.2c2.8,2.8,4.2,6.4,4.2,10.7s-1.4,7.9-4.2,10.7c-2.8,2.8-6.4,4.2-10.7,4.2s-7.9-1.4-10.7-4.2
				c-2.8-2.8-4.2-6.4-4.2-10.7s1.4-7.9,4.2-10.7c2.8-2.8,6.4-4.2,10.7-4.2S1121.1,1.4,1123.9,4.2z M1101.7,55.5h23.1v143.6h-23.1
				C1101.7,199.1,1101.7,55.5,1101.7,55.5z"/>
			<path class="st0" d="M1196.9,125.3l-51-69.8h27.6l38.3,53.2l38.9-53.2h25.6l-51.3,69.8l54.9,73.8h-27.6l-42.2-57.7l-42.2,57.7
				h-25.6L1196.9,125.3L1196.9,125.3z"/>
		</g>
		<g>
			<path class="st0" d="M209.2,2.2h-44.5v19.4h45.8c9.5,0,17.2,7.8,17.2,17.2v123.6c0,9.5-7.7,17.2-17.2,17.2h-6.5l-24.3-42
				c-3.1-5.4-8.9-8.7-15.1-8.7H82.4c-6.2,0-12,3.3-15.1,8.7L43,179.8h-6.4c-9.5,0-17.2-7.7-17.2-17.2V38.9c0-9.5,7.8-17.2,17.2-17.2
				h45.7V2.2H37.9C17,2.3,0,19.2,0,40.1v121.2c0,20.9,17,37.8,37.9,37.9h69.2v47.2L221.8,197c1.4-0.5,2.8-1.1,4.1-1.8l0.2-0.1
				c12.8-6.4,20.9-19.4,20.8-33.7V40.1C246.9,19.3,230,2.2,209.2,2.2L209.2,2.2z"/>
			<path class="st0" d="M123.5,108.3c18.2,0,33-14.8,33-33c0-18.2-14.8-33-33-33c-18.2,0-33,14.8-33,33v0
				C90.4,93.6,105.2,108.3,123.5,108.3z"/>
		</g>
	</g>
</g>
</svg>
